<svg width="35" height="29" viewBox="0 0 35 29" fill="none" xmlns="http://www.w3.org/2000/svg">
<path d="M32.9546 5.27259H10.5455C10.1959 5.27259 9.86059 5.13371 9.61338 4.88651C9.36617 4.6393 9.22729 4.30402 9.22729 3.95441C9.22729 3.60481 9.36617 3.26952 9.61338 3.02232C9.86059 2.77511 10.1959 2.63623 10.5455 2.63623H32.9546C33.3042 2.63623 33.6395 2.77511 33.8867 3.02232C34.1339 3.26952 34.2727 3.60481 34.2727 3.95441C34.2727 4.30402 34.1339 4.6393 33.8867 4.88651C33.6395 5.13371 33.3042 5.27259 32.9546 5.27259Z" fill="#0056D3"/>
<path d="M5.27273 5.27259H1.31818C0.968578 5.27259 0.633293 5.13371 0.386086 4.88651C0.138879 4.6393 0 4.30402 0 3.95441C0 3.60481 0.138879 3.26952 0.386086 3.02232C0.633293 2.77511 0.968578 2.63623 1.31818 2.63623H5.27273C5.62233 2.63623 5.95761 2.77511 6.20482 3.02232C6.45203 3.26952 6.59091 3.60481 6.59091 3.95441C6.59091 4.30402 6.45203 4.6393 6.20482 4.88651C5.95761 5.13371 5.62233 5.27259 5.27273 5.27259Z" fill="#0056D3"/>
<path d="M23.7273 15.818H1.31818C0.968578 15.818 0.633293 15.6791 0.386086 15.4319C0.138879 15.1847 0 14.8494 0 14.4998C0 14.1502 0.138879 13.8149 0.386086 13.5677C0.633293 13.3205 0.968578 13.1816 1.31818 13.1816H23.7273C24.0769 13.1816 24.4122 13.3205 24.6594 13.5677C24.9066 13.8149 25.0455 14.1502 25.0455 14.4998C25.0455 14.8494 24.9066 15.1847 24.6594 15.4319C24.4122 15.6791 24.0769 15.818 23.7273 15.818Z" fill="#0056D3"/>
<path d="M10.5455 26.3634H1.31818C0.968578 26.3634 0.633293 26.2245 0.386086 25.9773C0.138879 25.7301 0 25.3948 0 25.0452C0 24.6956 0.138879 24.3603 0.386086 24.1131C0.633293 23.8659 0.968578 23.7271 1.31818 23.7271H10.5455C10.8951 23.7271 11.2303 23.8659 11.4775 24.1131C11.7248 24.3603 11.8636 24.6956 11.8636 25.0452C11.8636 25.3948 11.7248 25.7301 11.4775 25.9773C11.2303 26.2245 10.8951 26.3634 10.5455 26.3634Z" fill="#0056D3"/>
<path d="M7.90908 7.90909C7.12694 7.90909 6.36237 7.67716 5.71205 7.24263C5.06173 6.8081 4.55486 6.19048 4.25555 5.46789C3.95624 4.74529 3.87793 3.95016 4.03052 3.18305C4.1831 2.41595 4.55974 1.71131 5.11279 1.15826C5.66584 0.605208 6.37048 0.228574 7.13758 0.0759873C7.90469 -0.0765997 8.69982 0.00171345 9.42241 0.301024C10.145 0.600334 10.7626 1.1072 11.1972 1.75752C11.6317 2.40784 11.8636 3.17241 11.8636 3.95455C11.8636 5.00336 11.447 6.00921 10.7054 6.75083C9.96374 7.49245 8.95789 7.90909 7.90908 7.90909ZM7.90908 2.63637C7.64836 2.63637 7.39351 2.71368 7.17673 2.85852C6.95996 3.00336 6.791 3.20923 6.69123 3.4501C6.59146 3.69097 6.56536 3.95601 6.61622 4.21171C6.66708 4.46741 6.79263 4.70229 6.97698 4.88664C7.16133 5.07099 7.39621 5.19654 7.65191 5.2474C7.90761 5.29826 8.17266 5.27216 8.41352 5.17239C8.65439 5.07262 8.86026 4.90366 9.0051 4.68689C9.14995 4.47012 9.22726 4.21526 9.22726 3.95455C9.22726 3.60494 9.08838 3.26966 8.84117 3.02245C8.59396 2.77524 8.25868 2.63637 7.90908 2.63637Z" fill="#0056D3"/>
<path d="M26.3636 18.4545C25.5815 18.4545 24.8169 18.2226 24.1666 17.788C23.5163 17.3535 23.0094 16.7359 22.7101 16.0133C22.4108 15.2907 22.3325 14.4956 22.485 13.7285C22.6376 12.9614 23.0143 12.2567 23.5673 11.7037C24.1204 11.1506 24.825 10.774 25.5921 10.6214C26.3592 10.4688 27.1543 10.5471 27.8769 10.8464C28.5995 11.1457 29.2172 11.6526 29.6517 12.3029C30.0862 12.9533 30.3181 13.7178 30.3181 14.5C30.3181 15.5488 29.9015 16.5546 29.1599 17.2962C28.4183 18.0379 27.4124 18.4545 26.3636 18.4545ZM26.3636 13.1818C26.1029 13.1818 25.848 13.2591 25.6313 13.4039C25.4145 13.5488 25.2455 13.7546 25.1458 13.9955C25.046 14.2364 25.0199 14.5014 25.0708 14.7571C25.1216 15.0128 25.2472 15.2477 25.4315 15.4321C25.6159 15.6164 25.8507 15.7419 26.1064 15.7928C26.3621 15.8437 26.6272 15.8176 26.8681 15.7178C27.1089 15.618 27.3148 15.4491 27.4596 15.2323C27.6045 15.0155 27.6818 14.7607 27.6818 14.5C27.6818 14.1504 27.5429 13.8151 27.2957 13.5679C27.0485 13.3207 26.7132 13.1818 26.3636 13.1818Z" fill="#0056D3"/>
<path d="M13.1818 28.9999C12.3997 28.9999 11.6351 28.768 10.9848 28.3335C10.3345 27.8989 9.82763 27.2813 9.52832 26.5587C9.22901 25.8361 9.1507 25.041 9.30328 24.2739C9.45587 23.5068 9.8325 22.8021 10.3856 22.2491C10.9386 21.696 11.6432 21.3194 12.4103 21.1668C13.1775 21.0142 13.9726 21.0925 14.6952 21.3918C15.4178 21.6912 16.0354 22.198 16.4699 22.8483C16.9045 23.4987 17.1364 24.2632 17.1364 25.0454C17.1364 26.0942 16.7197 27.1 15.9781 27.8417C15.2365 28.5833 14.2307 28.9999 13.1818 28.9999ZM13.1818 23.7272C12.9211 23.7272 12.6663 23.8045 12.4495 23.9493C12.2327 24.0942 12.0638 24.3001 11.964 24.5409C11.8642 24.7818 11.8381 25.0468 11.889 25.3025C11.9399 25.5582 12.0654 25.7931 12.2497 25.9775C12.4341 26.1618 12.669 26.2874 12.9247 26.3382C13.1804 26.3891 13.4454 26.363 13.6863 26.2632C13.9272 26.1634 14.133 25.9945 14.2779 25.7777C14.4227 25.5609 14.5 25.3061 14.5 25.0454C14.5 24.6958 14.3611 24.3605 14.1139 24.1133C13.8667 23.8661 13.5314 23.7272 13.1818 23.7272Z" fill="#0056D3"/>
<path d="M32.9546 15.818H29C28.6504 15.818 28.3151 15.6791 28.0679 15.4319C27.8207 15.1847 27.6818 14.8494 27.6818 14.4998C27.6818 14.1502 27.8207 13.8149 28.0679 13.5677C28.3151 13.3205 28.6504 13.1816 29 13.1816H32.9546C33.3042 13.1816 33.6394 13.3205 33.8866 13.5677C34.1339 13.8149 34.2727 14.1502 34.2727 14.4998C34.2727 14.8494 34.1339 15.1847 33.8866 15.4319C33.6394 15.6791 33.3042 15.818 32.9546 15.818Z" fill="#0056D3"/>
<path d="M32.9545 26.3634H15.8182C15.4686 26.3634 15.1333 26.2245 14.8861 25.9773C14.6389 25.7301 14.5 25.3948 14.5 25.0452C14.5 24.6956 14.6389 24.3603 14.8861 24.1131C15.1333 23.8659 15.4686 23.7271 15.8182 23.7271H32.9545C33.3041 23.7271 33.6394 23.8659 33.8866 24.1131C34.1338 24.3603 34.2727 24.6956 34.2727 25.0452C34.2727 25.3948 34.1338 25.7301 33.8866 25.9773C33.6394 26.2245 33.3041 26.3634 32.9545 26.3634Z" fill="#0056D3"/>
</svg>
