<svg width="28" height="28" viewBox="0 0 28 28" fill="none" xmlns="http://www.w3.org/2000/svg">
<path d="M4.0464 1H23.9495C24.3499 0.999469 24.7465 1.07788 25.1166 1.23076C25.4867 1.38364 25.823 1.60799 26.1063 1.89097C26.3896 2.17395 26.6144 2.51002 26.7677 2.87994C26.9211 3.24987 27 3.6464 27 4.04687V17.1646C27 17.9727 26.679 18.7477 26.1077 19.3191C25.5364 19.8905 24.7616 20.2115 23.9536 20.2115H17.8608C17.8341 20.2113 17.8076 20.2165 17.7828 20.2266C17.7581 20.2367 17.7356 20.2516 17.7166 20.2704L11.4045 26.5835C11.2056 26.7824 10.9523 26.9178 10.6765 26.9727C10.4007 27.0275 10.1149 26.9994 9.8551 26.8918C9.59531 26.7841 9.37327 26.6019 9.21706 26.368C9.06085 26.1342 8.97748 25.8593 8.9775 25.578V20.4126C8.9775 20.3587 8.95611 20.307 8.91802 20.2689C8.87993 20.2309 8.82827 20.2095 8.77441 20.2095H4.0464C3.23844 20.2095 2.46358 19.8885 1.89227 19.3171C1.32096 18.7457 1 17.9707 1 17.1626V4.04687C1 3.23879 1.32096 2.46381 1.89227 1.89241C2.46358 1.32101 3.23844 1 4.0464 1Z" stroke="white" stroke-width="2"/>
</svg>
